<svg xmlns="http://www.w3.org/2000/svg" height="1200" width="1600" version="1.1" xmlns:xlink="http://www.w3.org/1999/xlink" xmlns:svgjs="http://svgjs.com/svgjs"><rect fill="#ffffff" width="1600" height="1200"></rect><g><path d="M1175.36 286.73H788.47C767.75 286.73 750.89 303.5 750.89 324.31V572.78C750.89 593.51 767.67 610.37 788.47 610.37H1175.44C1196.17 610.37 1213.03 593.59 1213.03 572.78V324.31C1212.95 303.5 1196.09 286.73 1175.36 286.73Z" fill="#01c2cc" opacity="1" stroke-width="4" stroke="none"></path><path d="M796.37 345.78C803.86 345.78 809.94 339.7 809.94 332.21 809.94 324.72 803.86 318.64 796.37 318.64 788.87 318.64 782.8 324.72 782.8 332.21 782.8 339.7 788.87 345.78 796.37 345.78Z" fill="#fff3e8" opacity="1" stroke-width="4" stroke="none"></path><path d="M836.92 345.78C844.41 345.78 850.49 339.7 850.49 332.21 850.49 324.72 844.41 318.64 836.92 318.64 829.42 318.64 823.35 324.72 823.35 332.21 823.35 339.7 829.42 345.78 836.92 345.78Z" fill="#fff3e8" opacity="1" stroke-width="4" stroke="none"></path><path d="M877.46 345.78C884.96 345.78 891.04 339.7 891.04 332.21 891.04 324.72 884.96 318.64 877.46 318.64 869.97 318.64 863.89 324.72 863.89 332.21 863.89 339.7 869.97 345.78 877.46 345.78Z" fill="#fff3e8" opacity="1" stroke-width="4" stroke="none"></path></g><g><path d="M967.21 412.83C950.57 460.79 920.17 460.79 932.14 505.11L979.18 505.11C992.17 484.74 978.5 380.23 967.21 412.83Z" fill="#283044" opacity="1" stroke-width="4" stroke="none"></path><path d="M962.62 497.13C962.71 497.13 962.71 497.22 962.71 497.22 962.03 498.83 955.49 515.98 974.51 518.02 997.18 520.39 1012.71 493.82 1013.39 492.63 1013.39 492.63 1013.39 492.63 1013.48 492.63 1015 492.63 1058.13 491.78 1074.09 514.2V514.28C1038.95 568.62 966.36 583.98 912.11 548.84 902.85 542.89 894.45 535.68 887.32 527.44V527.36C913.89 498.58 959.82 497.22 962.62 497.13Z" fill="#ef7167" opacity="1" stroke-width="4" stroke="none"></path><path d="M923.91 427.51C924.42 423.01 924.93 416.39 925.69 409.77 926.03 407.22 929 404.85 929.43 402.3 930.87 393.72 931.55 389.06 935.28 384.98 942.92 376.41 959.99 368.42 979.86 370.55 999.13 372.58 1014.66 385.4 1015.34 412.4 1015.68 425.99 1015.6 447.38 1015.43 464.36 1015.26 479.3 1015.09 490.85 1015.09 490.85 1015.09 490.85 1013.56 531.94 984.78 536.44 955.23 541.02 958.97 495.35 958.97 495.35V475.91C958.97 475.91 942.33 482.87 929.09 473.7 915.33 464.19 922.63 439.49 923.91 427.51Z" fill="#f49e73" opacity="1" stroke-width="4" stroke="none"></path><path d="M958.97 489.92V475.99C958.97 475.99 958.97 475.91 959.06 475.91 959.65 475.74 965.42 473.7 971.28 470.56 971.37 470.56 971.45 470.64 971.37 470.64L959.14 489.92C959.06 490 958.97 490 958.97 489.92Z" fill="#171717" opacity="0.2" stroke-width="4" stroke="none"></path><path d="M926.79 402.38C928.24 393.81 930.27 387.1 934.01 383.03 941.65 374.45 959.99 365.62 979.86 367.75 999.13 369.78 1013.31 377.51 1024.51 410.03 1041.15 457.99 1071.8 457.99 1059.83 502.23L1059.75 502.31H991.32 991.23C978.67 482.44 986.31 460.03 986.65 459.01 986.65 459.01 986.65 459.01 986.73 458.93 987.75 458.5 1012.88 447.38 1007.02 431.25 1000.74 414.27 976.29 428.45 974.85 429.38H974.76C968.9 419.96 974.76 405.1 975.61 402.98 975.61 402.89 975.53 402.81 975.44 402.89 973.74 404.08 962.96 411.21 954.47 412.91 934.6 416.9 926.28 410.36 925.69 409.86V409.77C926.03 406.88 926.37 404.76 926.79 402.38Z" fill="#283044" opacity="1" stroke-width="4" stroke="none"></path><path d="M990.55 437.62L983.34 442.2" stroke="#171717" stroke-width="4" stroke-linecap="round" stroke-linejoin="round" opacity="1" fill="none"></path><path d="M938.93 438.55C938.17 439.91 937.07 442.03 937.32 443.39 937.58 444.24 938.26 444.92 939.02 445.34" stroke="#171717" stroke-width="4" stroke-linecap="round" stroke-linejoin="round" opacity="1" fill="none"></path><path d="M946.41 449.33C946.24 451.88 944.03 453.75 941.48 453.49 941.4 453.49 941.4 453.49 941.31 453.49" stroke="#171717" stroke-width="4" stroke-linecap="round" stroke-linejoin="round" opacity="1" fill="none"></path><path d="M957.7 476.41C962.88 474.79 971.54 469.19 971.54 469.19" stroke="#171717" stroke-width="4" stroke-linecap="round" stroke-linejoin="round" opacity="1" fill="none"></path><path d="M952.09 432.61C950.78 432.61 949.72 431.54 949.72 430.23 949.72 428.92 950.78 427.85 952.09 427.85 953.41 427.85 954.47 428.92 954.47 430.23 954.47 431.54 953.41 432.61 952.09 432.61Z" fill="#231f20" opacity="1" stroke-width="4" stroke="none"></path><path d="M930.27 430.22C928.96 430.22 927.9 429.16 927.9 427.85 927.9 426.54 928.96 425.47 930.27 425.47 931.58 425.47 932.65 426.54 932.65 427.85 932.65 429.16 931.58 430.22 930.27 430.22Z" fill="#231f20" opacity="1" stroke-width="4" stroke="none"></path><path d="M988.52 470.05C983.4 470.05 979.26 465.91 979.26 460.79 979.26 455.68 983.4 451.54 988.52 451.54 993.63 451.54 997.77 455.68 997.77 460.79 997.77 465.91 993.63 470.05 988.52 470.05Z" fill="#f28980" opacity="1" stroke-width="4" stroke="none"></path></g><g><path d="M326.25 608.07H264.82V762.34H326.25V608.07Z" fill="#ffffff" opacity="1" stroke-width="4" stroke="none"></path><path d="M264.82 608.07H276.97L299.36 762.34H264.82V608.07Z" fill="#d96800" opacity="0.3" stroke-width="4" stroke="none"></path><path d="M593.82 638.11H550.14V762.34H593.82V638.11Z" fill="#fff3e8" opacity="1" stroke-width="4" stroke="none"></path><path d="M550.14 638.11H555.05L571.98 762.34H550.14V638.11Z" fill="#d96800" opacity="0.3" stroke-width="4" stroke="none"></path><path d="M516.01 608.07H475.06V762.34H516.01V608.07Z" fill="#fff3e8" opacity="1" stroke-width="4" stroke="none"></path><path d="M659.35 608.07H593.82V762.34H659.35V608.07Z" fill="#ffffff" opacity="1" stroke-width="4" stroke="none"></path><path d="M694.16 608.07H659.35V762.34H694.16V608.07Z" fill="#fff3e8" opacity="1" stroke-width="4" stroke="none"></path><path d="M659.35 608.07H664.95L679.56 762.34H659.35V608.07Z" fill="#522700" opacity="0.3" stroke-width="4" stroke="none"></path><path d="M728.98 608.07H694.16V762.34H728.98V608.07Z" fill="#fff3e8" opacity="1" stroke-width="4" stroke="none"></path><path d="M437.38 607.72L360.24 741.31 398.07 763.16 475.21 629.56 437.38 607.72Z" fill="#fff3e8" opacity="1" stroke-width="4" stroke="none"></path><path d="M468.23 625.27L475.19 629.37 398.06 762.88 360.24 741.04 368.44 726.98 468.23 625.27Z" fill="#d96800" opacity="0.3" stroke-width="4" stroke="none"></path><path d="M360.38 584.87H326.25V762.34H360.38V584.87Z" fill="#fff3e8" opacity="1" stroke-width="4" stroke="none"></path><path d="M550.14 584.87H516.01V762.34H550.14V584.87Z" fill="#fff3e8" opacity="1" stroke-width="4" stroke="none"></path><path d="M308.5 857.63H264.82V1011.89H308.5V857.63Z" fill="#ffffff" opacity="1" stroke-width="4" stroke="none"></path><path d="M264.82 857.63H279.56L303.73 1011.89H264.82V857.63Z" fill="#d96800" opacity="0.3" stroke-width="4" stroke="none"></path><path d="M352.19 857.63H308.5V1011.89H352.19V857.63Z" fill="#fff3e8" opacity="1" stroke-width="4" stroke="none"></path><path d="M386.32 828.96H352.19V1011.89H386.32V828.96Z" fill="#ffffff" opacity="1" stroke-width="4" stroke="none"></path><path d="M468.23 828.96H386.32V1011.89H468.23V828.96Z" fill="#fff3e8" opacity="1" stroke-width="4" stroke="none"></path><path d="M386.32 828.96H393.83L413.9 1011.89H386.32V828.96Z" fill="#522700" opacity="0.3" stroke-width="4" stroke="none"></path><path d="M509.18 883.56H468.23V1011.89H509.18V883.56Z" fill="#fff3e8" opacity="1" stroke-width="4" stroke="none"></path><path d="M468.23 883.56H478.33L496.9 1011.89H468.23V883.56Z" fill="#140f0a" opacity="0.3" stroke-width="4" stroke="none"></path><path d="M619.76 857.63H578.81V1011.89H619.76V857.63Z" fill="#fff3e8" opacity="1" stroke-width="4" stroke="none"></path><path d="M660.72 857.63H619.76V1011.89H660.72V857.63Z" fill="#fff3e8" opacity="1" stroke-width="4" stroke="none"></path><path d="M578.81 857.63H509.18V1011.89H578.81V857.63Z" fill="#ffffff" opacity="1" stroke-width="4" stroke="none"></path><path d="M728.98 857.63H660.72V1011.89H728.98V857.63Z" fill="#fff3e8" opacity="1" stroke-width="4" stroke="none"></path><path d="M264.82 762.34H728.98" stroke="#d96800" stroke-width="4" stroke-linecap="round" stroke-linejoin="round" opacity="1" fill="none"></path><path d="M264.82 557.56V1009.84H728.98V557.56" stroke="#d96800" stroke-width="4" stroke-linecap="round" stroke-linejoin="round" opacity="1" fill="none"></path><path d="M660.72 857.63H666.59L690.89 1011.89H660.72V857.63Z" fill="#522700" opacity="0.3" stroke-width="4" stroke="none"></path></g><g><path d="M486.83 541.86C524.58 540.37 528.3 524.76 542.72 546.46 544.5 549.14 566.05 545.87 567.54 549.44 572.15 561.92 574.52 580.65 577.05 597.45 577.05 597.45 590.43 600.12 591.47 605.77 592.51 612.31 580.77 621.52 580.77 621.52 585.67 636.83 588.05 654.37 576.9 669.98 560.85 692.57 519.97 686.63 519.97 686.63L519.53 697.03 481.92 715.91 418.61 697.03 418.31 688.71C422.02 656.3 432.58 597.3 432.58 580.2 432.58 533.38 443.43 543.49 486.83 541.86Z" fill="#eaa58b" opacity="1" stroke-width="4" stroke="none"></path><path d="M519.83 686.63L519.38 697.03 502.73 710.56 486.09 686.78C483.11 682.46 487.42 677.11 492.33 678.9L519.83 686.63Z" fill="#000000" opacity="0.3" stroke-width="4" stroke="none"></path><path d="M563.08 540.67C548.51 518.82 524.14 507.52 485.94 509.01 442.24 510.64 415.93 536.36 415.78 583.47 415.78 600.12 417.27 656.3 418.31 688.71 418.31 688.71 452.49 688.26 467.51 668.79 467.51 668.79 436 638.77 451.01 616.32 466.02 593.88 500.5 620.78 500.5 620.78 523.24 610.08 515.07 587.49 512.99 582.73 512.84 582.43 513.14 581.99 513.58 582.14 520.12 584.22 559.07 594.77 548.81 558.65 548.66 558.21 548.96 557.91 549.4 557.91 563.82 557.61 567.54 549.44 567.54 549.44 566.35 546.32 564.71 543.49 563.08 540.67Z" fill="#283044" opacity="1" stroke-width="4" stroke="none"></path><path d="M567.39 633.71C556.84 635.5 550.89 626.58 550.89 626.58" stroke="#000000" stroke-width="4" stroke-linecap="round" stroke-linejoin="round" opacity="1" fill="none"></path><path d="M519.83 686.63L495.75 679.94" stroke="#000000" stroke-width="4" stroke-linecap="round" stroke-linejoin="round" opacity="1" fill="none"></path><path d="M489.65 641.29L476.72 635.5" stroke="#000000" stroke-width="4" stroke-linecap="round" stroke-linejoin="round" opacity="1" fill="none"></path><path d="M559.07 602.8C561.61 602.8 563.67 600.73 563.67 598.19 563.67 595.65 561.61 593.58 559.07 593.58 556.52 593.58 554.46 595.65 554.46 598.19 554.46 600.73 556.52 602.8 559.07 602.8Z" fill="#231f20" opacity="1" stroke-width="4" stroke="none"></path><path d="M674.56 870.34C648.69 882.53 628.18 892.63 628.18 892.63 628.18 892.63 614.8 818.32 598.45 776.7 582.1 735.08 558.32 712.79 519.68 709.81L519.38 697.03H418.61V711C371.49 717.1 342.8 781.01 323.48 849.38 310.55 895.31 304.6 956.7 327.34 995.79 343.84 1024.33 386.8 1017.49 393.78 985.23L547.47 985.53C547.47 985.53 571.7 1018.83 622.24 1012.88 652.26 1009.31 695.36 984.49 729.55 961.9L733.41 957.44 688.97 869.74 674.56 870.34Z" fill="#ef7167" opacity="1" stroke-width="4" stroke="none"></path><path d="M341.76 1009.76C341.91 1009.76 341.91 1009.91 342.06 1009.91 358.41 1018.97 385.16 1012.14 393.04 988.36L393.78 985.09 384.57 915.38C371.19 915.38 376.99 943.02 369.56 978.69 363.16 1009.61 341.76 1009.76 341.76 1009.76Z" fill="#111111" opacity="0.3" stroke-width="4" stroke="none"></path><path d="M547.47 985.53C533.2 960.12 513.73 913.44 503.33 855.48" stroke="#111111" stroke-width="4" stroke-linecap="round" stroke-linejoin="round" opacity="1" fill="none"></path><path d="M380.56 885.65L393.78 985.23" stroke="#111111" stroke-width="4" stroke-linecap="round" stroke-linejoin="round" opacity="1" fill="none"></path><path d="M628.18 892.63L613.02 924.74" stroke="#111111" stroke-width="4" stroke-linecap="round" stroke-linejoin="round" opacity="1" fill="none"></path><path d="M357.67 946.14L387.84 940.2" stroke="#111111" stroke-width="4" stroke-linecap="round" stroke-linejoin="round" opacity="1" fill="none"></path><path d="M814.87 850.13L800.15 864.84C799.56 865.43 798.67 866.03 797.77 866.18 793.76 867.07 781.87 869.6 770.87 868.85 766.86 868.56 764.78 863.95 767.16 860.83 773.99 851.61 784.55 835.41 778.3 830.21 772.8 825.6 716.62 850.57 674.56 870.34L729.55 961.9C752.89 946.44 771.91 932.32 779.79 926.82 791.23 918.5 800.15 906.9 804.76 893.38 804.91 892.78 805.21 892.34 805.5 891.89 808.62 888.03 824.53 867.22 823.34 853.1 823.04 848.94 817.84 847.15 814.87 850.13Z" fill="#eaa58b" opacity="1" stroke-width="4" stroke="none"></path><path d="M547.47 985.53C522.65 946.29 506.6 871.83 506.6 871.83H504.96C494.86 874.35 490.1 880.89 487.28 898.88 484.15 923.25 476.42 966.36 457.4 985.38L547.47 985.53Z" fill="#111111" opacity="0.3" stroke-width="4" stroke="none"></path><path d="M805.06 892.63C794.65 900.07 765.97 898.58 765.97 898.58" stroke="#000000" stroke-width="4" stroke-linecap="round" stroke-linejoin="round" opacity="1" fill="none"></path><path d="M790.34 917.61C776.82 922.36 758.98 922.36 758.98 922.36" stroke="#000000" stroke-width="4" stroke-linecap="round" stroke-linejoin="round" opacity="1" fill="none"></path><path d="M767.16 860.83L750.06 880.74" stroke="#000000" stroke-width="4" stroke-linecap="round" stroke-linejoin="round" opacity="1" fill="none"></path></g><g><path d="M1191.31 917.76C1217.54 917.76 1244.63 896.41 1251.71 870.18L1301.17 685.58C1304.67 672.51 1302.77 660.3 1295.81 651.23 1289.18 642.59 1278.68 637.84 1266.24 637.84H969.92C943.67 637.84 916.58 659.25 909.52 685.56L860.06 870.01C856.62 883.12 858.58 895.35 865.59 904.43 872.22 913.03 882.66 917.76 894.99 917.76H1191.31Z" fill="#0081a7" opacity="1" stroke-width="4" stroke="none"></path><path d="M1030.42 917.76C1030.52 917.13 1030.58 916.5 1030.61 915.87 1030.64 915.25 1030.68 914.63 1030.76 914.04 1032.66 894.98 1045.06 879.48 1058.39 879.48 1060.89 879.51 1063.36 880.07 1065.63 881.12 1067.9 882.18 1069.92 883.71 1071.55 885.61 1077.42 892.05 1080.3 902.67 1079.25 914.03L1078.81 917.71 1111.97 917.76 1119.37 841.17 1004.51 841.13 996.96 917.76H1030.42Z" fill="#000000" opacity="0.3" stroke-width="4" stroke="none"></path><path d="M1156.13 976.64L1119.96 841.16 1004.95 841.13 1041.28 976.64H1156.13ZM1072.96 879.48C1086.23 879.48 1101.2 894.99 1106.34 914.04 1109.42 925.5 1108.31 936.19 1103.37 942.64 1101.99 944.52 1100.17 946.03 1098.09 947.07 1096 948.1 1093.69 948.62 1091.36 948.59 1078.01 948.59 1062.97 933.08 1057.84 914.02 1054.83 902.53 1056 891.83 1060.97 885.39 1062.36 883.53 1064.17 882.02 1066.25 880.99 1068.34 879.96 1070.64 879.45 1072.96 879.48Z" fill="#01c2cc" opacity="1" stroke-width="4" stroke="none"></path><path d="M1131.4 708.39L1124.19 735.47" stroke="#000000" stroke-width="4" stroke-linecap="round" stroke-linejoin="round" opacity="1" fill="none"></path><path d="M1097.55 708.39L1090.33 735.47" stroke="#000000" stroke-width="4" stroke-linecap="round" stroke-linejoin="round" opacity="1" fill="none"></path><path d="M1063.69 708.39L1056.48 735.47" stroke="#000000" stroke-width="4" stroke-linecap="round" stroke-linejoin="round" opacity="1" fill="none"></path><path d="M989.05 976.64C989.06 973.92 988.54 971.24 987.51 968.73 986.47 966.22 984.96 963.94 983.04 962.01 981.13 960.09 978.85 958.57 976.35 957.53 973.84 956.48 971.16 955.95 968.44 955.95H722.61C717.14 955.95 711.89 958.13 708.02 962 704.15 965.87 701.97 971.12 701.96 976.6V976.64H989.05Z" fill="#0081a7" opacity="1" stroke-width="4" stroke="none"></path><path d="M799.16 976.64C799.17 973.92 798.64 971.24 797.61 968.73 796.58 966.22 795.06 963.94 793.15 962.01 791.23 960.09 788.96 958.57 786.45 957.53 783.95 956.48 781.26 955.95 778.55 955.95H722.61C717.14 955.95 711.89 958.13 708.02 962 704.15 965.87 701.97 971.12 701.96 976.6V976.64H799.16Z" fill="#01c2cc" opacity="1" stroke-width="4" stroke="none"></path></g><g><path d="M555.52 371.87C611.75 371.87 657.34 326.28 657.34 270.05 657.34 213.82 611.75 168.23 555.52 168.23 499.28 168.23 453.7 213.82 453.7 270.05 453.7 326.28 499.28 371.87 555.52 371.87Z" fill="#fea8a1" opacity="1" stroke-width="4" stroke="none"></path><path d="M555.52 331.37C589.38 331.37 616.84 303.92 616.84 270.05 616.84 236.18 589.38 208.73 555.52 208.73 521.65 208.73 494.2 236.18 494.2 270.05 494.2 303.92 521.65 331.37 555.52 331.37Z" fill="#ffffff" opacity="1" stroke-width="4" stroke="none"></path><path d="M576.34 237.17L555.52 270.05 570.88 289.73" stroke="#431c19" stroke-width="4" stroke-linecap="round" stroke-linejoin="round" opacity="1" fill="none"></path></g><g><path d="M1243.43 808.83L1237.12 814.49C1237.01 814.49 1237.01 814.6 1237.01 814.71L1231.69 831.34C1231.69 831.45 1231.69 831.56 1231.9 831.56L1248.54 831.45C1248.54 831.45 1262.45 825.47 1263.54 824.92V824.82L1251.8 811.55C1251.8 811.55 1251.69 811.44 1251.58 811.44L1243.43 808.83Z" fill="#767676" opacity="1" stroke-width="4" stroke="none"></path><path d="M1273.76 838.73L1283.33 824.49 1290.94 823.51 1298.54 825.47 1306.15 840.9C1306.15 841.01 1306.15 841.01 1306.05 841.01L1289.96 843.3 1273.87 838.84C1273.65 838.84 1273.65 838.84 1273.76 838.73Z" fill="#aac2c3" opacity="1" stroke-width="4" stroke="none"></path><path d="M1298.44 901.67L1248.86 902.54 1226.25 876.24C1226.14 876.13 1226.25 876.02 1226.36 876.02H1319.42C1319.53 876.02 1319.53 876.13 1319.53 876.24L1298.44 901.67Z" fill="#000000" opacity="1" stroke-width="4" stroke="none"></path><path d="M1287.57 940.7L1263.54 824.82C1263.54 824.71 1263.43 824.71 1263.43 824.71L1231.8 831.23C1231.69 831.23 1231.69 831.34 1231.69 831.34L1255.6 947.33 1287.57 940.7Z" fill="#fea8a1" opacity="1" stroke-width="4" stroke="none"></path><path d="M1241.58 800.46L1236.91 814.49C1236.91 814.6 1236.91 814.6 1237.01 814.6L1251.47 811.55C1251.58 811.55 1251.58 811.44 1251.58 811.34L1241.8 800.36C1241.8 800.36 1241.69 800.36 1241.58 800.46Z" fill="#fea8a1" opacity="1" stroke-width="4" stroke="none"></path><path d="M1306.05 841.01L1273.76 838.84C1273.65 838.84 1273.65 838.84 1273.65 838.95L1265.93 957.12 1298.44 959.18 1306.15 841.01C1306.15 841.01 1306.15 841.01 1306.05 841.01Z" fill="#01c2cc" opacity="1" stroke-width="4" stroke="none"></path><path d="M1291.91 811.99L1298.44 825.47 1283.33 824.49 1291.7 811.88C1291.7 811.88 1291.8 811.88 1291.91 811.99Z" fill="#01c2cc" opacity="1" stroke-width="4" stroke="none"></path><path d="M1272.78 892.22C1255.93 892.33 1239.51 886.67 1226.25 876.13 1226.14 876.02 1226.03 876.13 1226.03 876.24L1232.45 934.72 1242.88 969.84 1302.24 969.29 1313.22 933.85 1319.53 876.24C1319.53 876.13 1319.42 876.13 1319.31 876.13 1306.05 886.67 1289.63 892.33 1272.78 892.22Z" fill="#ef7167" opacity="1" stroke-width="4" stroke="none"></path><path d="M1313.22 933.85C1289.74 914.07 1255.6 914.61 1232.56 934.72V934.83L1237.01 975.82H1308.76L1313.22 933.85Z" fill="#5b1a15" opacity="1" stroke-width="4" stroke="none"></path></g><g><path d="M1455.6 975.2H143.74L143.74 1021.73H1455.6L1455.6 975.2Z" fill="#fff3e8" opacity="1" stroke-width="4" stroke="none"></path></g></svg>